<svg width="47" height="50" viewBox="0 0 47 50" fill="ffffff" xmlns="http://www.w3.org/2000/svg">
<g clip-path="url(#clip0_5_2)">
<path d="M24.69 39.8C13.96 39.8 4.98 36.06 4.42 35.82C3.15 35.28 2.56 33.81 3.1 32.54C3.64 31.27 5.11 30.68 6.38 31.22C6.65 31.33 25.42 39.08 39.56 31.33C40.77 30.67 42.29 31.11 42.95 32.32C43.61 33.53 43.17 35.05 41.96 35.71C36.36 38.78 30.29 39.8 24.69 39.8Z" fill="white"/>
<path d="M11.55 38.01C11.41 38.01 11.28 38 11.14 37.98C8.23 37.5 5.69 35.13 3.99 31.31C1.41 25.5 0.749997 15.93 5.42 8.65C6.02 7.71 6.71 6.83 7.45 6.03C8.35 5.07 9.36 4.2 10.45 3.46C13.83 1.17 18.04 0 22.95 0C32.31 0 40.83 4.57 42.78 10.63C43.2 11.94 42.48 13.35 41.17 13.78C39.85 14.2 38.45 13.48 38.02 12.17C36.91 8.71 30.59 5.01 22.95 5.01C19.06 5.01 15.79 5.89 13.25 7.61C12.47 8.14 11.74 8.76 11.1 9.45C10.56 10.03 10.06 10.67 9.62 11.36C6.12 16.82 6.43 24.52 8.56 29.29C9.51 31.42 10.81 32.87 11.95 33.05C13.31 33.27 14.23 34.56 14.01 35.92C13.81 37.14 12.75 38.01 11.55 38.01V38.01Z" fill="white"/>
<path d="M41.55 49.31L2.82 48.65L2.2 48.22C0.77 47.23 0 45.8 0 44.17C0.01 39.6 6.67 34.67 8.71 33.27C9.85 32.49 11.4 32.78 12.18 33.91C12.96 35.05 12.67 36.6 11.54 37.39C8.56 39.45 5.74 42.25 5.12 43.68L40.52 44.28C40.77 44.14 41.03 43.95 41.05 43.77C41.21 42.21 37.68 38.52 36.15 37.47C35.01 36.78 34.61 35.32 35.25 34.14C35.91 32.93 37.42 32.47 38.64 33.13C38.72 33.17 46.32 38.56 46.05 43.99C45.98 45.3 45.37 47.7 42.03 49.09L41.55 49.29V49.31ZM36.17 37.49C36.17 37.49 36.23 37.53 36.25 37.54C36.22 37.52 36.19 37.51 36.17 37.49Z" fill="white"/>
<path d="M28.83 48.02C28.37 48.02 27.9 47.89 27.48 47.62C23.16 44.85 18.52 46.99 17.68 47.42C17.24 47.79 16.68 48.01 16.06 48.01C15 48.01 14.04 47.33 13.69 46.32C13.34 45.31 13.72 44.15 14.56 43.49C15.66 42.62 23.21 38.94 30.19 43.41C31.35 44.16 31.69 45.7 30.94 46.86C30.46 47.6 29.66 48.01 28.83 48.01V48.02Z" fill="white"/>
<path d="M34.81 10.92C34 10.92 33.21 10.53 32.73 9.81001C30.98 7.19001 28.21 4.82001 19.84 5.20001C18.45 5.25001 17.29 4.20001 17.23 2.82001C17.17 1.44001 18.23 0.270007 19.61 0.210007C28.15 -0.179993 33.48 1.93001 36.89 7.04001C37.66 8.19001 37.35 9.74001 36.2 10.51C35.77 10.79 35.29 10.93 34.82 10.93L34.81 10.92Z" fill="white"/>
<path d="M31.91 13.41C31.23 13.41 30.55 13.13 30.06 12.59C26.14 8.27999 21.41 6.17999 15.58 6.17999C15.58 6.17999 15.57 6.17999 15.56 6.17999C14.18 6.17999 13.06 5.05999 13.06 3.67999C13.06 2.29999 14.18 1.17999 15.56 1.17999H15.58C22.79 1.17999 28.91 3.88999 33.76 9.22999C34.69 10.25 34.61 11.83 33.59 12.76C33.11 13.19 32.51 13.41 31.91 13.41V13.41Z" fill="white"/>
<path d="M37.46 29.45C33.51 29.45 30.3 26.24 30.3 22.29C30.3 18.34 33.51 15.13 37.46 15.13C41.41 15.13 44.62 18.34 44.62 22.29C44.62 26.24 41.41 29.45 37.46 29.45V29.45ZM37.46 20.13C36.27 20.13 35.3 21.1 35.3 22.29C35.3 23.48 36.27 24.45 37.46 24.45C38.65 24.45 39.62 23.48 39.62 22.29C39.62 21.1 38.65 20.13 37.46 20.13V20.13Z" fill="white"/>
<path d="M16.97 37.84C16.57 37.84 16.17 37.74 15.79 37.54C14.57 36.89 14.11 35.37 14.76 34.16C16.2 31.46 19.27 30.57 21.73 29.85C22.75 29.55 24.65 29 24.9 28.56C24.93 28.48 24.92 28.03 24.54 27.15C22.4 22.32 23.33 17.09 27.03 13.16C30.92 9.04 36.77 7.35 41.28 9.04C42.57 9.53 43.23 10.97 42.74 12.26C42.25 13.55 40.81 14.2 39.52 13.72C36.94 12.75 33.13 13.98 30.67 16.59C29.31 18.03 27.3 21.05 29.11 25.12C30.05 27.24 30.16 29.11 29.44 30.66C28.29 33.14 25.55 33.94 23.13 34.64C21.49 35.12 19.63 35.66 19.18 36.5C18.73 37.34 17.87 37.82 16.97 37.82V37.84Z" fill="white"/>
<path d="M27.26 16.79C26.89 16.79 26.52 16.71 26.16 16.54C22.99 14.99 23.03 12.34 23.05 10.91C23.07 9.36999 23.09 8.25999 19.71 6.47999C18.49 5.83999 18.02 4.31999 18.67 3.09999C19.31 1.87999 20.83 1.40999 22.05 2.05999C27.66 5.01999 28.09 8.21999 28.05 10.98C28.05 11.3 28.05 11.72 28.08 11.89C28.1 11.89 28.19 11.96 28.36 12.04C29.6 12.65 30.11 14.14 29.51 15.38C29.08 16.27 28.19 16.78 27.26 16.78V16.79Z" fill="white"/>
<path d="M28.7 16.81C27.53 16.81 26.49 15.98 26.24 14.79C26.17 14.44 25.84 12.45 26.34 7.05001C26.47 5.68001 27.68 4.66001 29.06 4.79001C30.44 4.92001 31.45 6.13001 31.32 7.51001C30.89 12.16 31.15 13.8 31.15 13.82C31.43 15.17 30.56 16.47 29.21 16.75C29.04 16.78 28.87 16.8 28.71 16.8L28.7 16.81Z" fill="white"/>
<path d="M27.26 18.47C26.2 18.47 25.21 17.79 24.88 16.72C24.32 14.95 22.3 13.13 19.34 11.74C15.33 9.85001 11.46 9.55001 10.22 10.05C8.94 10.57 7.48 9.95001 6.96 8.67001C6.44 7.39001 7.06 5.93001 8.34 5.41001C11.78 4.02001 17.56 5.37001 21.47 7.21001C25.75 9.23001 28.65 12.07 29.65 15.21C30.07 16.53 29.34 17.93 28.02 18.35C27.77 18.43 27.52 18.47 27.27 18.47H27.26Z" fill="white"/>
</g>
<defs>
<clipPath id="clip0_5_2">
<rect width="46.05" height="49.31" fill="white"/>
</clipPath>
</defs>
</svg>
